<mxfile host="app.diagrams.net" modified="2024-04-18T11:40:45.271Z" agent="Mozilla/5.0 (Macintosh; Intel Mac OS X 10_15_7) AppleWebKit/537.36 (KHTML, like Gecko) Chrome/123.0.0.0 Safari/537.36" etag="BSc4ENlGFVjKprVV3ceV" version="24.2.5" type="device">
  <diagram name="Page-1" id="NtAFpCO2j-qn-RovqE0h">
    <mxGraphModel dx="1026" dy="650" grid="1" gridSize="10" guides="1" tooltips="1" connect="1" arrows="1" fold="1" page="1" pageScale="1" pageWidth="850" pageHeight="1100" math="0" shadow="0">
      <root>
        <mxCell id="0" />
        <mxCell id="1" parent="0" />
        <mxCell id="MRw95LfSZwAX-kwFUWbm-1" value="ESP32-C3-MINI-1" style="whiteSpace=wrap;html=1;aspect=fixed;" parent="1" vertex="1">
          <mxGeometry x="220" y="159.41" width="150" height="150" as="geometry" />
        </mxCell>
        <mxCell id="MRw95LfSZwAX-kwFUWbm-2" value="USB-C&lt;div&gt;Component&lt;/div&gt;" style="whiteSpace=wrap;html=1;aspect=fixed;" parent="1" vertex="1">
          <mxGeometry x="750" y="310" width="80" height="80" as="geometry" />
        </mxCell>
        <mxCell id="MRw95LfSZwAX-kwFUWbm-4" value="" style="endArrow=classic;html=1;rounded=0;entryX=0.549;entryY=1.023;entryDx=0;entryDy=0;entryPerimeter=0;" parent="1" edge="1">
          <mxGeometry width="50" height="50" relative="1" as="geometry">
            <mxPoint x="750" y="350" as="sourcePoint" />
            <mxPoint x="721.96" y="350.69000000000005" as="targetPoint" />
          </mxGeometry>
        </mxCell>
        <mxCell id="MRw95LfSZwAX-kwFUWbm-5" value="ESD Protection&lt;div&gt;Component&lt;/div&gt;" style="whiteSpace=wrap;html=1;aspect=fixed;" parent="1" vertex="1">
          <mxGeometry x="640" y="310" width="80" height="80" as="geometry" />
        </mxCell>
        <mxCell id="MRw95LfSZwAX-kwFUWbm-6" value="RGB LEDS&lt;div&gt;X 124&lt;/div&gt;" style="whiteSpace=wrap;html=1;aspect=fixed;" parent="1" vertex="1">
          <mxGeometry x="610" y="170" width="80" height="80" as="geometry" />
        </mxCell>
        <mxCell id="MRw95LfSZwAX-kwFUWbm-7" value="" style="endArrow=classic;html=1;rounded=0;exitX=0.5;exitY=0;exitDx=0;exitDy=0;entryX=0.865;entryY=1.02;entryDx=0;entryDy=0;entryPerimeter=0;" parent="1" source="MRw95LfSZwAX-kwFUWbm-5" target="MRw95LfSZwAX-kwFUWbm-6" edge="1">
          <mxGeometry width="50" height="50" relative="1" as="geometry">
            <mxPoint x="649.5" y="300" as="sourcePoint" />
            <mxPoint x="649.5" y="250" as="targetPoint" />
          </mxGeometry>
        </mxCell>
        <mxCell id="MRw95LfSZwAX-kwFUWbm-14" value="Step-Down Voltage Regulator to 3.3V" style="whiteSpace=wrap;html=1;aspect=fixed;" parent="1" vertex="1">
          <mxGeometry x="410" y="309.41" width="80" height="80" as="geometry" />
        </mxCell>
        <mxCell id="MRw95LfSZwAX-kwFUWbm-27" value="" style="endArrow=classic;html=1;rounded=0;entryX=1;entryY=0.867;entryDx=0;entryDy=0;entryPerimeter=0;" parent="1" target="MRw95LfSZwAX-kwFUWbm-1" edge="1">
          <mxGeometry width="50" height="50" relative="1" as="geometry">
            <mxPoint x="460" y="289.41" as="sourcePoint" />
            <mxPoint x="280" y="289.41" as="targetPoint" />
          </mxGeometry>
        </mxCell>
        <mxCell id="MRw95LfSZwAX-kwFUWbm-28" value="On/Off&lt;div&gt;Button&lt;/div&gt;" style="whiteSpace=wrap;html=1;aspect=fixed;" parent="1" vertex="1">
          <mxGeometry x="530" y="309.40999999999997" width="80" height="80" as="geometry" />
        </mxCell>
        <mxCell id="MRw95LfSZwAX-kwFUWbm-41" value="Start/Stop&lt;div&gt;Race Button&lt;/div&gt;" style="whiteSpace=wrap;html=1;aspect=fixed;" parent="1" vertex="1">
          <mxGeometry x="220" y="340" width="80" height="80" as="geometry" />
        </mxCell>
        <mxCell id="MRw95LfSZwAX-kwFUWbm-49" value="Countdown&lt;div&gt;Timer&lt;/div&gt;&lt;div&gt;RGB LEDS&lt;/div&gt;&lt;div&gt;x5&lt;/div&gt;" style="whiteSpace=wrap;html=1;aspect=fixed;" parent="1" vertex="1">
          <mxGeometry x="720" y="170" width="80" height="80" as="geometry" />
        </mxCell>
        <mxCell id="MRw95LfSZwAX-kwFUWbm-50" value="" style="endArrow=none;html=1;rounded=0;" parent="1" edge="1">
          <mxGeometry width="50" height="50" relative="1" as="geometry">
            <mxPoint x="710" y="290" as="sourcePoint" />
            <mxPoint x="760" y="290" as="targetPoint" />
            <Array as="points">
              <mxPoint x="760" y="290" />
            </Array>
          </mxGeometry>
        </mxCell>
        <mxCell id="MRw95LfSZwAX-kwFUWbm-51" value="" style="endArrow=classic;html=1;rounded=0;entryX=0.5;entryY=1;entryDx=0;entryDy=0;" parent="1" target="MRw95LfSZwAX-kwFUWbm-49" edge="1">
          <mxGeometry width="50" height="50" relative="1" as="geometry">
            <mxPoint x="760" y="290" as="sourcePoint" />
            <mxPoint x="760" y="260" as="targetPoint" />
          </mxGeometry>
        </mxCell>
        <mxCell id="MRw95LfSZwAX-kwFUWbm-54" value="" style="endArrow=none;html=1;rounded=0;" parent="1" edge="1">
          <mxGeometry width="50" height="50" relative="1" as="geometry">
            <mxPoint x="460" y="309.41" as="sourcePoint" />
            <mxPoint x="460" y="289.41" as="targetPoint" />
          </mxGeometry>
        </mxCell>
        <mxCell id="MRw95LfSZwAX-kwFUWbm-65" value="&lt;div&gt;JTAG&lt;/div&gt;" style="whiteSpace=wrap;html=1;aspect=fixed;" parent="1" vertex="1">
          <mxGeometry x="70" y="260" width="80" height="80" as="geometry" />
        </mxCell>
        <mxCell id="MRw95LfSZwAX-kwFUWbm-72" value="Temperature&lt;div&gt;Sensor&lt;/div&gt;" style="whiteSpace=wrap;html=1;aspect=fixed;" parent="1" vertex="1">
          <mxGeometry x="70" y="159.41" width="80" height="80" as="geometry" />
        </mxCell>
        <mxCell id="yd9ti4C-MsjZP0sG5xmx-3" value="" style="endArrow=classic;html=1;rounded=0;" parent="1" edge="1">
          <mxGeometry width="50" height="50" relative="1" as="geometry">
            <mxPoint x="260" y="340" as="sourcePoint" />
            <mxPoint x="259.73" y="309.41" as="targetPoint" />
          </mxGeometry>
        </mxCell>
        <mxCell id="yd9ti4C-MsjZP0sG5xmx-7" value="" style="endArrow=classic;html=1;rounded=0;exitX=0.996;exitY=0.484;exitDx=0;exitDy=0;entryX=-0.004;entryY=0.927;entryDx=0;entryDy=0;entryPerimeter=0;exitPerimeter=0;" parent="1" source="MRw95LfSZwAX-kwFUWbm-65" target="MRw95LfSZwAX-kwFUWbm-1" edge="1">
          <mxGeometry width="50" height="50" relative="1" as="geometry">
            <mxPoint x="260" y="339.41" as="sourcePoint" />
            <mxPoint x="259.64" y="309.41" as="targetPoint" />
          </mxGeometry>
        </mxCell>
        <mxCell id="yd9ti4C-MsjZP0sG5xmx-10" value="" style="endArrow=classic;html=1;rounded=0;exitX=0;exitY=0.5;exitDx=0;exitDy=0;entryX=-0.068;entryY=0.564;entryDx=0;entryDy=0;entryPerimeter=0;" parent="1" target="MRw95LfSZwAX-kwFUWbm-6" edge="1">
          <mxGeometry width="50" height="50" relative="1" as="geometry">
            <mxPoint x="370" y="215.20000000000002" as="sourcePoint" />
            <mxPoint x="560" y="214.41" as="targetPoint" />
          </mxGeometry>
        </mxCell>
        <mxCell id="yd9ti4C-MsjZP0sG5xmx-13" value="" style="endArrow=classic;html=1;rounded=0;entryX=1;entryY=0.507;entryDx=0;entryDy=0;entryPerimeter=0;" parent="1" target="MRw95LfSZwAX-kwFUWbm-28" edge="1">
          <mxGeometry width="50" height="50" relative="1" as="geometry">
            <mxPoint x="640" y="350" as="sourcePoint" />
            <mxPoint x="620" y="350" as="targetPoint" />
          </mxGeometry>
        </mxCell>
        <mxCell id="yd9ti4C-MsjZP0sG5xmx-14" value="" style="endArrow=classic;html=1;rounded=0;entryX=1.041;entryY=0.509;entryDx=0;entryDy=0;entryPerimeter=0;" parent="1" target="MRw95LfSZwAX-kwFUWbm-14" edge="1">
          <mxGeometry width="50" height="50" relative="1" as="geometry">
            <mxPoint x="530" y="349.8" as="sourcePoint" />
            <mxPoint x="500" y="349.8" as="targetPoint" />
          </mxGeometry>
        </mxCell>
        <mxCell id="yd9ti4C-MsjZP0sG5xmx-15" value="" style="endArrow=classic;html=1;rounded=0;exitX=1;exitY=0.5;exitDx=0;exitDy=0;" parent="1" source="MRw95LfSZwAX-kwFUWbm-72" edge="1">
          <mxGeometry width="50" height="50" relative="1" as="geometry">
            <mxPoint x="160" y="200" as="sourcePoint" />
            <mxPoint x="220" y="199.25" as="targetPoint" />
          </mxGeometry>
        </mxCell>
        <mxCell id="2tE8rmbaCQlYZUPzmlaC-4" value="5V" style="text;html=1;align=center;verticalAlign=middle;resizable=0;points=[];autosize=1;strokeColor=none;fillColor=none;" parent="1" vertex="1">
          <mxGeometry x="490" y="320" width="40" height="30" as="geometry" />
        </mxCell>
        <mxCell id="2tE8rmbaCQlYZUPzmlaC-5" value="3.3V" style="text;html=1;align=center;verticalAlign=middle;resizable=0;points=[];autosize=1;strokeColor=none;fillColor=none;" parent="1" vertex="1">
          <mxGeometry x="410" y="260" width="50" height="30" as="geometry" />
        </mxCell>
        <mxCell id="2tE8rmbaCQlYZUPzmlaC-7" value="SPI" style="text;html=1;align=center;verticalAlign=middle;resizable=0;points=[];autosize=1;strokeColor=none;fillColor=none;" parent="1" vertex="1">
          <mxGeometry x="490" y="184.41" width="40" height="30" as="geometry" />
        </mxCell>
        <mxCell id="2tE8rmbaCQlYZUPzmlaC-9" value="" style="endArrow=none;html=1;rounded=0;" parent="1" edge="1">
          <mxGeometry width="50" height="50" relative="1" as="geometry">
            <mxPoint x="350" y="130" as="sourcePoint" />
            <mxPoint x="760" y="130" as="targetPoint" />
          </mxGeometry>
        </mxCell>
        <mxCell id="2tE8rmbaCQlYZUPzmlaC-11" value="SPI" style="text;html=1;align=center;verticalAlign=middle;resizable=0;points=[];autosize=1;strokeColor=none;fillColor=none;" parent="1" vertex="1">
          <mxGeometry x="530" y="100" width="40" height="30" as="geometry" />
        </mxCell>
        <mxCell id="2tE8rmbaCQlYZUPzmlaC-12" value="I2C" style="text;html=1;align=center;verticalAlign=middle;resizable=0;points=[];autosize=1;strokeColor=none;fillColor=none;" parent="1" vertex="1">
          <mxGeometry x="160" y="170" width="40" height="30" as="geometry" />
        </mxCell>
        <mxCell id="2tE8rmbaCQlYZUPzmlaC-13" value="" style="endArrow=none;html=1;rounded=0;" parent="1" edge="1">
          <mxGeometry width="50" height="50" relative="1" as="geometry">
            <mxPoint x="710" y="309.41" as="sourcePoint" />
            <mxPoint x="710" y="290" as="targetPoint" />
          </mxGeometry>
        </mxCell>
        <mxCell id="2tE8rmbaCQlYZUPzmlaC-15" value="" style="endArrow=classic;html=1;rounded=0;" parent="1" edge="1">
          <mxGeometry width="50" height="50" relative="1" as="geometry">
            <mxPoint x="759.58" y="130" as="sourcePoint" />
            <mxPoint x="759.58" y="170" as="targetPoint" />
          </mxGeometry>
        </mxCell>
        <mxCell id="2tE8rmbaCQlYZUPzmlaC-17" value="" style="endArrow=none;html=1;rounded=0;exitX=0.864;exitY=-0.001;exitDx=0;exitDy=0;exitPerimeter=0;" parent="1" source="MRw95LfSZwAX-kwFUWbm-1" edge="1">
          <mxGeometry width="50" height="50" relative="1" as="geometry">
            <mxPoint x="300" y="180" as="sourcePoint" />
            <mxPoint x="350" y="130" as="targetPoint" />
          </mxGeometry>
        </mxCell>
      </root>
    </mxGraphModel>
  </diagram>
</mxfile>
